<svg width="230" height="21" viewBox="0 0 230 21" fill="none" xmlns="http://www.w3.org/2000/svg">
    <path fill-rule="evenodd" clip-rule="evenodd"
        d="M63.7942 1.06559L71.4971 11.5817V18.7607H77.2682L77.2349 11.6054L85.0577 1.06559L78.5143 1L74.5088 6.42648L70.3646 1.06559H63.7942ZM21.2637 1.06549H34.7473C39.3795 1.06549 40.7932 2.96821 40.7932 5.2038V5.3704C40.7932 7.77258 38.8794 8.7715 37.6616 8.9617C39.3579 9.2234 41.6848 10.2699 41.6848 13.3142V13.5519C41.6848 16.4536 40.0539 18.7606 34.7689 18.7606H21.2637V1.06549ZM27.1357 5.2038V7.77258H33.1164C34.3561 7.77258 34.7473 7.24918 34.7473 6.51197V6.46442C34.7473 5.70326 34.3341 5.2038 33.1164 5.2038H27.1357ZM27.1357 11.602V14.4325H33.5512C35.0951 14.4325 35.378 13.6713 35.378 13.0052V12.9101C35.378 12.2205 35.0951 11.602 33.5512 11.602H27.1357ZM49.1972 8.55735V18.7606H43.6683V1.06549H50.2494L57.8799 10.9595V1.06549H63.4088V18.761H56.8644L49.1975 8.55768L49.1972 8.55735Z"
        fill="currentColor" />
    <path d="M5.13403 10.0155L0 3.20703L18.4017 10.0155L0 16.9957L5.13403 10.0155Z" fill="#419BAD" />
    <path
        d="M97.6531 10.4993V9.38068C98.3775 9.38068 98.8825 9.23366 99.168 8.93963C99.4577 8.64134 99.6026 8.15767 99.6026 7.48864V5.85866C99.6026 5.13849 99.6921 4.54829 99.8711 4.08807C100.054 3.62784 100.321 3.26989 100.67 3.0142C101.02 2.75852 101.446 2.58168 101.949 2.48366C102.451 2.38139 103.022 2.33026 103.662 2.33026V4.10724C103.159 4.10724 102.773 4.17756 102.505 4.31818C102.236 4.45455 102.051 4.66548 101.949 4.95099C101.85 5.23651 101.801 5.60085 101.801 6.04403V8.14062C101.801 8.46875 101.746 8.77557 101.635 9.06108C101.525 9.34659 101.322 9.59801 101.028 9.81534C100.734 10.0284 100.314 10.1967 99.7688 10.3203C99.2276 10.4396 98.5224 10.4993 97.6531 10.4993ZM103.662 18.5724C103.022 18.5724 102.451 18.5213 101.949 18.419C101.446 18.321 101.02 18.1442 100.67 17.8885C100.321 17.6328 100.054 17.2749 99.8711 16.8146C99.6921 16.3544 99.6026 15.7642 99.6026 15.044V13.4205C99.6026 12.7514 99.4577 12.2699 99.168 11.9759C98.8825 11.6776 98.3775 11.5284 97.6531 11.5284V10.4098C98.5224 10.4098 99.2276 10.4716 99.7688 10.5952C100.314 10.7145 100.734 10.8828 101.028 11.1001C101.322 11.3132 101.525 11.5625 101.635 11.848C101.746 12.1335 101.801 12.4382 101.801 12.7621V14.8587C101.801 15.3018 101.85 15.6662 101.949 15.9517C102.051 16.2372 102.236 16.4503 102.505 16.5909C102.773 16.7315 103.159 16.8018 103.662 16.8018V18.5724ZM97.6531 11.5284V9.38068H99.6793V11.5284H97.6531ZM222.995 11.6179V12.7365C222.27 12.7365 221.763 12.8857 221.473 13.1839C221.188 13.478 221.045 13.9595 221.045 14.6286V16.2521C221.045 16.9723 220.954 17.5625 220.77 18.0227C220.591 18.483 220.327 18.8409 219.978 19.0966C219.628 19.3523 219.202 19.5291 218.699 19.6271C218.197 19.7294 217.625 19.7805 216.986 19.7805V18.0099C217.489 18.0099 217.875 17.9396 218.143 17.799C218.412 17.6584 218.595 17.4453 218.693 17.1598C218.795 16.8743 218.846 16.5099 218.846 16.0668V13.9702C218.846 13.6463 218.902 13.3416 219.013 13.0561C219.123 12.7706 219.326 12.5213 219.62 12.3082C219.914 12.0909 220.331 11.9226 220.873 11.8033C221.418 11.6797 222.125 11.6179 222.995 11.6179ZM216.986 3.53835C217.625 3.53835 218.197 3.58949 218.699 3.69176C219.202 3.78977 219.628 3.96662 219.978 4.2223C220.327 4.47798 220.591 4.83594 220.77 5.29616C220.954 5.75639 221.045 6.34659 221.045 7.06676V8.69673C221.045 9.36577 221.188 9.84943 221.473 10.1477C221.763 10.4418 222.27 10.5888 222.995 10.5888V11.7074C222.125 11.7074 221.418 11.6477 220.873 11.5284C220.331 11.4048 219.914 11.2365 219.62 11.0234C219.326 10.8061 219.123 10.5547 219.013 10.2692C218.902 9.98366 218.846 9.67685 218.846 9.34872V7.25213C218.846 6.80895 218.795 6.4446 218.693 6.15909C218.595 5.87358 218.412 5.66264 218.143 5.52628C217.875 5.38565 217.489 5.31534 216.986 5.31534V3.53835ZM222.995 10.5888V12.7365H220.969V10.5888H222.995Z"
        fill="#419BAD" />
    <path
        d="M109.179 3.90909H112.081L115.967 13.3949H116.12L120.007 3.90909H122.909V17H120.633V8.00639H120.512L116.894 16.9616H115.194L111.576 7.98722H111.454V17H109.179V3.90909ZM127.854 17.1982C127.232 17.1982 126.672 17.0874 126.173 16.8658C125.679 16.6399 125.287 16.3075 124.997 15.8686C124.711 15.4297 124.569 14.8885 124.569 14.245C124.569 13.6911 124.671 13.233 124.875 12.8707C125.08 12.5085 125.359 12.2188 125.713 12.0014C126.066 11.7841 126.465 11.62 126.908 11.5092C127.356 11.3942 127.818 11.3111 128.295 11.2599C128.87 11.2003 129.337 11.147 129.695 11.1001C130.053 11.049 130.313 10.9723 130.475 10.87C130.641 10.7635 130.724 10.5994 130.724 10.3778V10.3395C130.724 9.85795 130.581 9.48509 130.296 9.22088C130.01 8.95668 129.599 8.82457 129.062 8.82457C128.495 8.82457 128.046 8.94815 127.714 9.19531C127.385 9.44247 127.164 9.73437 127.049 10.071L124.888 9.7642C125.059 9.16761 125.34 8.66903 125.732 8.26847C126.124 7.86364 126.603 7.56108 127.17 7.3608C127.737 7.15625 128.363 7.05398 129.049 7.05398C129.522 7.05398 129.993 7.10938 130.462 7.22017C130.931 7.33097 131.359 7.5142 131.747 7.76989C132.135 8.02131 132.446 8.36435 132.68 8.79901C132.919 9.23366 133.038 9.77699 133.038 10.429V17H130.814V15.6513H130.737C130.596 15.924 130.398 16.1797 130.142 16.4183C129.891 16.6527 129.574 16.8423 129.19 16.9872C128.811 17.1278 128.365 17.1982 127.854 17.1982ZM128.455 15.4979C128.919 15.4979 129.322 15.4062 129.663 15.223C130.004 15.0355 130.266 14.7884 130.449 14.4815C130.637 14.1747 130.731 13.8402 130.731 13.478V12.321C130.658 12.3807 130.535 12.4361 130.36 12.4872C130.189 12.5384 129.998 12.5831 129.785 12.6214C129.571 12.6598 129.361 12.6939 129.152 12.7237C128.943 12.7536 128.762 12.7791 128.608 12.8004C128.263 12.8473 127.954 12.924 127.682 13.0305C127.409 13.1371 127.194 13.2862 127.036 13.478C126.878 13.6655 126.799 13.9084 126.799 14.2067C126.799 14.6328 126.955 14.9545 127.266 15.1719C127.577 15.3892 127.973 15.4979 128.455 15.4979ZM135.005 17V7.18182H137.248V8.81818H137.351C137.53 8.25142 137.836 7.81463 138.271 7.50781C138.71 7.19673 139.211 7.04119 139.773 7.04119C139.901 7.04119 140.044 7.04758 140.202 7.06037C140.363 7.06889 140.498 7.08381 140.604 7.10511V9.23366C140.506 9.19957 140.351 9.16974 140.138 9.14418C139.929 9.11435 139.726 9.09943 139.53 9.09943C139.108 9.09943 138.729 9.19105 138.393 9.37429C138.06 9.55327 137.798 9.80256 137.606 10.1222C137.415 10.4418 137.319 10.8104 137.319 11.228V17H135.005ZM143.891 13.919L143.884 11.1257H144.255L147.784 7.18182H150.487L146.147 12.0142H145.668L143.891 13.919ZM141.781 17V3.90909H144.095V17H141.781ZM147.943 17L144.747 12.532L146.307 10.902L150.711 17H147.943ZM155.612 17.1918C154.627 17.1918 153.777 16.9872 153.061 16.5781C152.35 16.1648 151.802 15.581 151.419 14.8267C151.035 14.0682 150.843 13.1754 150.843 12.1484C150.843 11.1385 151.035 10.2521 151.419 9.48935C151.806 8.7223 152.348 8.12571 153.042 7.69957C153.737 7.26918 154.553 7.05398 155.49 7.05398C156.096 7.05398 156.667 7.15199 157.203 7.34801C157.745 7.53977 158.222 7.83807 158.635 8.2429C159.053 8.64773 159.381 9.16335 159.62 9.78977C159.858 10.4119 159.978 11.1534 159.978 12.0142V12.7237H151.93V11.1641H157.76C157.755 10.7209 157.659 10.3267 157.472 9.98153C157.284 9.6321 157.022 9.35724 156.686 9.15696C156.353 8.95668 155.966 8.85653 155.522 8.85653C155.049 8.85653 154.634 8.97159 154.276 9.2017C153.918 9.42756 153.639 9.72585 153.439 10.0966C153.243 10.4631 153.142 10.8658 153.138 11.3047V12.6662C153.138 13.2372 153.243 13.7273 153.451 14.1364C153.66 14.5412 153.952 14.8523 154.327 15.0696C154.702 15.2827 155.141 15.3892 155.644 15.3892C155.98 15.3892 156.285 15.3423 156.558 15.2486C156.831 15.1506 157.067 15.0078 157.267 14.8203C157.468 14.6328 157.619 14.4006 157.721 14.1236L159.882 14.3665C159.745 14.9375 159.485 15.4361 159.102 15.8622C158.723 16.2841 158.237 16.6122 157.645 16.8466C157.052 17.0767 156.375 17.1918 155.612 17.1918ZM166.478 7.18182V8.97159H160.834V7.18182H166.478ZM162.227 4.82955H164.541V14.0469C164.541 14.358 164.588 14.5966 164.682 14.7628C164.78 14.9247 164.908 15.0355 165.065 15.0952C165.223 15.1548 165.398 15.1847 165.589 15.1847C165.734 15.1847 165.866 15.174 165.986 15.1527C166.109 15.1314 166.203 15.1122 166.267 15.0952L166.657 16.9041C166.533 16.9467 166.356 16.9936 166.126 17.0447C165.9 17.0959 165.623 17.1257 165.295 17.1342C164.716 17.1513 164.194 17.0639 163.729 16.8722C163.265 16.6761 162.896 16.3736 162.623 15.9645C162.355 15.5554 162.223 15.044 162.227 14.4304V4.82955ZM168.053 20.6818V7.18182H170.329V8.8054H170.463C170.582 8.56676 170.751 8.31321 170.968 8.04474C171.185 7.77202 171.479 7.53977 171.85 7.34801C172.221 7.15199 172.694 7.05398 173.269 7.05398C174.027 7.05398 174.711 7.24787 175.321 7.63565C175.934 8.01918 176.42 8.58807 176.778 9.34233C177.14 10.0923 177.322 11.0128 177.322 12.1037C177.322 13.1818 177.145 14.098 176.791 14.8523C176.437 15.6065 175.956 16.1818 175.346 16.5781C174.737 16.9744 174.047 17.1726 173.275 17.1726C172.713 17.1726 172.246 17.0788 171.876 16.8913C171.505 16.7038 171.206 16.478 170.981 16.2138C170.759 15.9453 170.586 15.6918 170.463 15.4531H170.367V20.6818H168.053ZM170.322 12.0909C170.322 12.7259 170.412 13.282 170.591 13.7592C170.774 14.2365 171.036 14.6094 171.377 14.8778C171.722 15.142 172.14 15.2741 172.63 15.2741C173.141 15.2741 173.569 15.1378 173.915 14.8651C174.26 14.5881 174.52 14.2109 174.694 13.7337C174.873 13.2521 174.963 12.7045 174.963 12.0909C174.963 11.4815 174.876 10.9403 174.701 10.4673C174.526 9.99432 174.266 9.62358 173.921 9.35511C173.576 9.08665 173.145 8.95241 172.63 8.95241C172.135 8.95241 171.716 9.08239 171.371 9.34233C171.025 9.60227 170.763 9.96662 170.584 10.4354C170.41 10.9041 170.322 11.456 170.322 12.0909ZM181.257 3.90909V17H178.943V3.90909H181.257ZM186.102 17.1982C185.48 17.1982 184.919 17.0874 184.421 16.8658C183.926 16.6399 183.534 16.3075 183.244 15.8686C182.959 15.4297 182.816 14.8885 182.816 14.245C182.816 13.6911 182.918 13.233 183.123 12.8707C183.328 12.5085 183.607 12.2188 183.96 12.0014C184.314 11.7841 184.713 11.62 185.156 11.5092C185.603 11.3942 186.065 11.3111 186.543 11.2599C187.118 11.2003 187.585 11.147 187.943 11.1001C188.301 11.049 188.561 10.9723 188.722 10.87C188.889 10.7635 188.972 10.5994 188.972 10.3778V10.3395C188.972 9.85795 188.829 9.48509 188.543 9.22088C188.258 8.95668 187.847 8.82457 187.31 8.82457C186.743 8.82457 186.293 8.94815 185.961 9.19531C185.633 9.44247 185.411 9.73437 185.296 10.071L183.136 9.7642C183.306 9.16761 183.588 8.66903 183.98 8.26847C184.372 7.86364 184.851 7.56108 185.418 7.3608C185.985 7.15625 186.611 7.05398 187.297 7.05398C187.77 7.05398 188.241 7.10938 188.71 7.22017C189.178 7.33097 189.607 7.5142 189.994 7.76989C190.382 8.02131 190.693 8.36435 190.928 8.79901C191.166 9.23366 191.286 9.77699 191.286 10.429V17H189.061V15.6513H188.985C188.844 15.924 188.646 16.1797 188.39 16.4183C188.139 16.6527 187.821 16.8423 187.438 16.9872C187.058 17.1278 186.613 17.1982 186.102 17.1982ZM186.703 15.4979C187.167 15.4979 187.57 15.4062 187.911 15.223C188.252 15.0355 188.514 14.7884 188.697 14.4815C188.884 14.1747 188.978 13.8402 188.978 13.478V12.321C188.906 12.3807 188.782 12.4361 188.607 12.4872C188.437 12.5384 188.245 12.5831 188.032 12.6214C187.819 12.6598 187.608 12.6939 187.399 12.7237C187.19 12.7536 187.009 12.7791 186.856 12.8004C186.511 12.8473 186.202 12.924 185.929 13.0305C185.656 13.1371 185.441 13.2862 185.284 13.478C185.126 13.6655 185.047 13.9084 185.047 14.2067C185.047 14.6328 185.203 14.9545 185.514 15.1719C185.825 15.3892 186.221 15.4979 186.703 15.4979ZM197.535 17.1918C196.555 17.1918 195.713 16.9766 195.01 16.5462C194.311 16.1158 193.772 15.5213 193.393 14.7628C193.018 14 192.83 13.1222 192.83 12.1293C192.83 11.1321 193.022 10.2521 193.406 9.48935C193.789 8.7223 194.33 8.12571 195.029 7.69957C195.732 7.26918 196.563 7.05398 197.522 7.05398C198.319 7.05398 199.024 7.20099 199.638 7.49503C200.256 7.7848 200.748 8.19602 201.115 8.72869C201.481 9.2571 201.69 9.875 201.741 10.5824H199.529C199.44 10.1094 199.227 9.7152 198.89 9.39986C198.558 9.08026 198.112 8.92045 197.554 8.92045C197.081 8.92045 196.666 9.0483 196.308 9.30398C195.95 9.5554 195.671 9.91761 195.47 10.3906C195.274 10.8636 195.176 11.4304 195.176 12.0909C195.176 12.7599 195.274 13.3352 195.47 13.8168C195.666 14.294 195.941 14.6626 196.295 14.9226C196.653 15.1783 197.073 15.3061 197.554 15.3061C197.895 15.3061 198.2 15.2422 198.468 15.1143C198.741 14.9822 198.969 14.7926 199.152 14.5455C199.335 14.2983 199.461 13.9979 199.529 13.6442H201.741C201.686 14.3388 201.481 14.9545 201.127 15.4915C200.774 16.0241 200.292 16.4418 199.683 16.7443C199.073 17.0426 198.357 17.1918 197.535 17.1918ZM207.628 17.1918C206.643 17.1918 205.793 16.9872 205.077 16.5781C204.366 16.1648 203.818 15.581 203.434 14.8267C203.051 14.0682 202.859 13.1754 202.859 12.1484C202.859 11.1385 203.051 10.2521 203.434 9.48935C203.822 8.7223 204.363 8.12571 205.058 7.69957C205.753 7.26918 206.569 7.05398 207.506 7.05398C208.111 7.05398 208.682 7.15199 209.219 7.34801C209.76 7.53977 210.238 7.83807 210.651 8.2429C211.069 8.64773 211.397 9.16335 211.635 9.78977C211.874 10.4119 211.993 11.1534 211.993 12.0142V12.7237H203.946V11.1641H209.775C209.771 10.7209 209.675 10.3267 209.488 9.98153C209.3 9.6321 209.038 9.35724 208.701 9.15696C208.369 8.95668 207.981 8.85653 207.538 8.85653C207.065 8.85653 206.65 8.97159 206.292 9.2017C205.934 9.42756 205.655 9.72585 205.454 10.0966C205.258 10.4631 205.158 10.8658 205.154 11.3047V12.6662C205.154 13.2372 205.258 13.7273 205.467 14.1364C205.676 14.5412 205.968 14.8523 206.343 15.0696C206.718 15.2827 207.157 15.3892 207.66 15.3892C207.996 15.3892 208.301 15.3423 208.574 15.2486C208.846 15.1506 209.083 15.0078 209.283 14.8203C209.483 14.6328 209.635 14.4006 209.737 14.1236L211.898 14.3665C211.761 14.9375 211.501 15.4361 211.118 15.8622C210.738 16.2841 210.253 16.6122 209.66 16.8466C209.068 17.0767 208.39 17.1918 207.628 17.1918Z"
        fill="currentColor" />
</svg>